# AST/ASF file generated using VICON BodyLanguage
# -----------------------------------------------
:version 1.10
:name VICON
:units
  mass 1.0
  length 0.45
  angle deg
:documentation
   .ast/.asf automatically generated from VICON data using
   VICON BodyBuilder and BodyLanguage model FoxedUp or BRILLIANT.MOD
:root
   order TX TY TZ RX RY RZ
   axis XYZ
   position 0 0 0  
   orientation 0 0 0 
:bonedata
  begin
     id 1 
     name lhipjoint
     direction 0.624716 -0.669793 0.401383 
     length 2.38238 
     axis 0 0 0  XYZ
  end
  begin
     id 2 
     name lfemur
     direction 0.34202 -0.939693 0  
     length 6.4574  
     axis 0 0 20  XYZ
    dof rx ry rz
    limits (-160.0 20.0)
           (-70.0 70.0)
           (-60.0 70.0)
  end
  begin
     id 3 
     name ltibia
     direction 0.34202 -0.939693 0   
     length 7.68739   
     axis 0 0 20   XYZ
    dof rx
    limits (-10.0 170.0)
  end
  begin
     id 4 
     name lfoot
     direction 0.0681309 -0.187188 0.979959   
     length 2.46615   
     axis -90 7.62852e-016 20   XYZ
    dof rx rz
    limits (-45.0 90.0)
           (-70.0 20.0)
  end
  begin
     id 5 
     name ltoes
     direction 1.53566e-011 -4.21819e-011 1   
     length 1.2376   
     axis -90 7.62852e-016 20   XYZ
    dof rx
    limits (-90.0 20.0)
  end
  begin
     id 6 
     name rhipjoint
     direction -0.644473 -0.655875 0.393043   
     length 2.43293  
     axis 0 0 0  XYZ 
  end
  begin
     id 7 
     name rfemur
     direction -0.34202 -0.939693 0   
     length 6.7025   
     axis 0 0 -20   XYZ
    dof rx ry rz
    limits (-160.0 20.0)
           (-70.0 70.0)
           (-70.0 60.0)
  end
  begin
     id 8 
     name rtibia
     direction -0.34202 -0.939693 0   
     length 7.80547   
     axis 0 0 -20   XYZ
    dof rx
    limits (-10.0 170.0)
 end
 begin
     id 9 
     name rfoot
     direction -0.0756734 -0.207911 0.975216   
     length 2.40315  
     axis -90 -7.62852e-016 -20   XYZ
    dof rx rz
    limits (-45.0 90.0)
           (-20.0 70.0)
  end
  begin
     id 10 
     name rtoes
     direction -1.5353e-011 -4.21879e-011 1   
     length 1.20477   
     axis -90 -7.62852e-016 -20   XYZ
    dof rx
    limits (-90.0 20.0)
  end
  begin
     id 11 
     name lowerback
     direction 0.0160353 0.987463 -0.157037   
     length 2.18572   
     axis 0 0 0   XYZ
    dof rx ry rz
    limits (-20.0 45.0)
           (-30.0 30.0)
           (-30.0 30.0)
  end
  begin
     id 12 
     name upperback
     direction -0.00499661 0.999756 0.0215076   
     length 2.18016   
     axis 0 0 0   XYZ
    dof rx ry rz
    limits (-20.0 45.0)
           (-30.0 30.0)
           (-30.0 30.0)
  end
  begin
     id 13 
     name thorax
     direction -0.00921346 0.995333 0.0960619   
     length 2.24923   
     axis 0 0 0   XYZ
    dof rx ry rz
    limits (-20.0 45.0)
           (-30.0 30.0)
           (-30.0 30.0)
  end
  begin
     id 14 
     name lowerneck
     direction 0.0274184 0.991181 0.12965   
     length 1.70911   
     axis 0 0 0   XYZ
    dof rx ry rz
    limits (-20.0 45.0)
           (-30.0 30.0)
           (-30.0 30.0)
  end
  begin
     id 15 
     name upperneck
     direction 0.0015627 0.999959 -0.00893559   
     length 1.69312   
     axis 0 0 0   XYZ
    dof rx ry rz
    limits (-20.0 45.0)
           (-30.0 30.0)
           (-30.0 30.0)
  end
  begin
     id 16
     name head
     direction -0.00230242 0.999856 -0.0168327  
     length 1.80241  
     axis 0 0 0   XYZ
    dof rx ry rz
    limits (-20.0 45.0)
           (-30.0 30.0)
           (-30.0 30.0)
  end
  begin
     id 17 
     name lclavicle
     direction 0.955523 0.290741 -0.0494489  
     length 3.84275  
     axis 0 0 0   XYZ
    dof ry rz
    limits (-20.0 10.0)
           (0.0 20.0)
  end
  begin
     id 18 
     name lhumerus
     direction 1 -4.48967e-011 -3.18382e-028   
     length 5.17714   
     axis 180 -30 -90   XYZ
    dof rx ry rz
    limits (-60.0 90.0)
           (-90.0 90.0)
           (-90.0 90.0)
  end
  begin
     id 19
     name lradius
     direction 1 -4.48968e-011 -2.22911e-027   
     length 3.43679   
     axis 180 -30 -90   XYZ
    dof rx
    limits (-10.0 170.0)
  end
  begin
     id 20
     name lwrist
     direction 1 -4.48951e-011 -6.32245e-027   
     length 1.7184   
     axis 3.57107e-015 90 90   XYZ
    dof ry
    limits (-180.0 0.0)
 end
  begin
     id 21 
     name lhand
     direction 1 -4.48924e-011 -1.26431e-026   
     length 0.573117   
     axis 8.06912e-015 90 90   XYZ
    dof rx rz
    limits (-90.0 90.0)
           (-45.0 45.0)
  end
  begin
     id 22 
     name lfingers
     direction 1 -4.49001e-011 -2.52965e-026   
     length 0.462062   
     axis 1.61381e-014 90 90   XYZ
    dof rx
    limits (0.0 90.0)
  end
  begin
     id 23
     name lthumb
     direction 0.707107 -6.35008e-011 0.707107   
     length 0.663431   
     axis -90 45 -1.62303e-014   XYZ
    dof rx rz
    limits (-45.0 45.0)
           (-45.0 45.0)
  end
  begin
     id 24 
     name rclavicle
     direction -0.963917 0.256881 -0.0698287   
     length 3.73057  
     axis 0 0 0   XYZ 
    dof ry rz
    limits (-10.0 20.0)
           (-20.0 0.0)
  end
  begin
     id 25 
     name rhumerus
     direction -1 -4.48962e-011 -2.73982e-027  
     length 5.23908   
     axis 180 30 90   XYZ
    dof rx ry rz
    limits (-90.0 60.0)
           (-90.0 90.0)
           (-90.0 90.0)
  end
  begin
     id 26 
     name rradius
     direction -1 -4.48968e-011 -4.33218e-027   
     length 3.46485   
     axis 180 30 90   XYZ
    dof rx
    limits (-10.0 170.0)
  end
  begin
     id 27 
     name rwrist
     direction -1 -4.48989e-011 -6.32372e-027   
     length 1.73243   
     axis 3.57107e-015 -90 -90   XYZ
    dof ry
    limits (-180.0 0.0)
  end
  begin
     id 28
     name rhand
     direction -1 -4.48948e-011 -1.26448e-026   
     length 0.608752   
     axis 8.06912e-015 -90 -90   XYZ
    dof rx rz
    limits (-90.0 90.0)
           (-45.0 45.0)
  end
  begin
     id 29
     name rfingers
     direction -1 -4.48962e-011 -2.52913e-026   
     length 0.490792   
     axis 1.61381e-014 -90 -90   XYZ
    dof rx
    limits (0.0 90.0)
  end
  begin
     id 30
     name rthumb
     direction -0.707107 -6.34878e-011 0.707107   
     length 0.704682   
     axis -90 -45 1.62303e-014   XYZ
    dof rx rz
    limits (-45.0 45.0)
           (-45.0 45.0)
  end
:hierarchy
  begin
    root lhipjoint rhipjoint lowerback
    lhipjoint lfemur
    lfemur ltibia
    ltibia lfoot
    lfoot ltoes
    rhipjoint rfemur
    rfemur rtibia
    rtibia rfoot
    rfoot rtoes
    lowerback upperback
    upperback thorax
    thorax lowerneck lclavicle rclavicle
    lowerneck upperneck
    upperneck head
    lclavicle lhumerus
    lhumerus lradius
    lradius lwrist
    lwrist lhand lthumb
    lhand lfingers
    rclavicle rhumerus
    rhumerus rradius
    rradius rwrist
    rwrist rhand rthumb
    rhand rfingers
  end

#!OML:ASF G:\JayActor3\Patient Classification 1\Patient 1\Session 6\male.ASF
:FULLY-SPECIFIED
:DEGREES
419
root 24.2592 15.9905 -4.4711 165.499 -40.9773 -171.856
lowerback -0.641022 -2.68888 5.94168
upperback 0.0362774 -3.67035 1.02075
thorax 0.0929285 -1.84622 -2.28725
lowerneck 8.8743 3.97244 1.06542
upperneck -9.05111 6.02423 6.57037
head -4.34315 2.47764 1.46393
rclavicle -8.88319e-014 1.6027e-014
rhumerus -6.79024 8.09981 -64.9915
rradius 59.3669
rwrist -56.2526
rhand -22.127 -19.7641
rfingers 7.12502
rthumb 4.28609 -49.7008
lclavicle -8.88319e-014 1.6027e-014
lhumerus 3.76007 18.8269 71.9322
lradius 48.9136
lwrist 59.1064
lhand -41.2725 5.745
lfingers 7.12502
lthumb -14.1942 35.24
rfemur -6.1023 6.78004 36.3577
rtibia 31.6371
rfoot -18.4709 -14.2692
rtoes 6.65066
lfemur -12.924 3.75464 -10.1551
ltibia 70.5187
lfoot -5.03567 -1.15445
ltoes -11.8605
420
root 24.1275 15.981 -4.61553 165.619 -40.389 -171.905
lowerback -0.640031 -2.59259 6.03111
upperback 0.032889 -3.54329 1.02632
thorax 0.0944916 -1.78302 -2.33157
lowerneck 8.85262 4.07439 1.12852
upperneck -8.94263 6.16035 6.55219
head -4.30783 2.54754 1.44051
rclavicle -8.48314e-014 1.04362e-015
rhumerus -6.85089 7.83745 -65.0728
rradius 59.0261
rwrist -56.1078
rhand -22.1983 -19.7618
rfingers 7.12502
rthumb 4.21731 -49.6998
lclavicle -8.48314e-014 1.04362e-015
lhumerus 3.56063 18.8339 71.8847
lradius 48.6655
lwrist 59.0658
lhand -41.3238 5.70164
lfingers 7.12502
lthumb -14.2436 35.1932
rfemur -5.45178 6.58273 36.498
rtibia 31.8132
rfoot -18.8975 -13.8529
rtoes 6.24784
lfemur -14.3464 3.64523 -10.4774
ltibia 69.9695
lfoot -6.73217 0.216166
ltoes -12.3572
421
root 23.9951 15.9687 -4.75906 165.735 -39.7892 -171.982
lowerback -0.617411 -2.49341 6.13225
upperback 0.045143 -3.41081 1.01083
thorax 0.0988948 -1.7165 -2.4034
lowerneck 8.8386 4.17387 1.19574
upperneck -8.86812 6.29496 6.52682
head -4.28367 2.61554 1.41405
rclavicle 7.87063e-014 2.62644e-014
rhumerus -6.88865 7.58342 -65.1551
rradius 58.6736
rwrist -55.891
rhand -22.2414 -19.7402
rfingers 7.12502
rthumb 4.17562 -49.679
lclavicle 7.87063e-014 2.62644e-014
lhumerus 3.3863 18.8344 71.8154
lradius 48.4114
lwrist 59.0164
lhand -41.3662 5.67512
lfingers 7.12502
lthumb -14.2845 35.1638
rfemur -4.78582 6.38147 36.5958
rtibia 32.008
rfoot -19.3636 -13.3894
rtoes 5.86767
lfemur -15.6461 3.55244 -10.8123
ltibia 69.1742
lfoot -8.19443 1.51696
ltoes -12.8704
422
root 23.862 15.9541 -4.90235 165.842 -39.1894 -172.076
lowerback -0.570607 -2.39765 6.24053
upperback 0.0635373 -3.2809 0.982612
thorax 0.095215 -1.6512 -2.49132
lowerneck 8.84231 4.27303 1.25917
upperneck -8.8201 6.4303 6.49374
head -4.27031 2.68325 1.38531
rclavicle 8.362e-014 -1.47598e-014
rhumerus -6.91286 7.36027 -65.2301
rradius 58.3124
rwrist -55.6038
rhand -22.2582 -19.7021
rfingers 7.12502
rthumb 4.15947 -49.6413
lclavicle 8.362e-014 -1.47598e-014
lhumerus 3.21933 18.8427 71.7303
lradius 48.1562
lwrist 58.9547
lhand -41.3977 5.65057
lfingers 7.12502
lthumb -14.3148 35.1371
rfemur -4.09237 6.20309 36.6636
rtibia 32.1983
rfoot -19.8634 -12.9059
rtoes 5.52219
lfemur -16.8295 3.46008 -11.15
ltibia 68.1393
lfoot -9.4413 2.72448
ltoes -13.235
423
root 23.728 15.9375 -5.04586 165.935 -38.5984 -172.165
lowerback -0.511268 -2.30955 6.36466
upperback 0.0843403 -3.16027 0.949009
thorax 0.085604 -1.59062 -2.59315
lowerneck 8.85309 4.37192 1.3172
upperneck -8.78249 6.56493 6.452
head -4.26099 2.75095 1.35464
rclavicle -7.64948e-014 3.926e-015
rhumerus -6.92351 7.17446 -65.2946
rradius 57.9424
rwrist -55.2452
rhand -22.2586 -19.6476
rfingers 7.12502
rthumb 4.15905 -49.5867
lclavicle -7.64948e-014 3.926e-015
lhumerus 3.05685 18.8654 71.6322
lradius 47.9038
lwrist 58.8873
lhand -41.4218 5.6278
lfingers 7.12502
lthumb -14.3381 35.1127
rfemur -3.3623 6.06187 36.7205
rtibia 32.3468
rfoot -20.3596 -12.4397
rtoes 5.15641
lfemur -17.9019 3.36521 -11.4715
ltibia 66.866
lfoot -10.5049 3.83013
ltoes -13.4472
424
root 23.5932 15.9208 -5.19036 165.997 -38.0251 -172.208
lowerback -0.451677 -2.23299 6.53099
upperback 0.105112 -3.05555 0.919968
thorax 0.0730804 -1.53821 -2.71381
lowerneck 8.86078 4.47075 1.36893
upperneck -8.74135 6.69816 6.40586
head -4.24992 2.81879 1.32385
rclavicle 7.52897e-015 -4.42296e-015
rhumerus -6.92151 7.02755 -65.3484
rradius 57.5667
rwrist -54.8384
rhand -22.2617 -19.5828
rfingers 7.12502
rthumb 4.15608 -49.522
lclavicle 7.52897e-015 -4.42296e-015
lhumerus 2.89857 18.9055 71.5267
lradius 47.6585
lwrist 58.8204
lhand -41.4405 5.62919
lfingers 7.12502
lthumb -14.3561 35.1128
rfemur -2.57751 5.95462 36.8014
rtibia 32.4021
rfoot -20.8087 -12.0154
rtoes 4.71945
lfemur -18.8684 3.25821 -11.7392
ltibia 65.353
lfoot -11.4231 4.82339
ltoes -13.487
425
root 23.4574 15.9068 -5.33686 166.04 -37.4761 -172.202
lowerback -0.410475 -2.1675 6.73494
upperback 0.122838 -2.9675 0.898209
thorax 0.0653405 -1.4942 -2.84868
lowerneck 8.85162 4.57005 1.41452
upperneck -8.67939 6.82937 6.35785
head -4.22959 2.88723 1.29424
rclavicle 7.85572e-014 1.18774e-014
rhumerus -6.91226 6.92093 -65.3856
rradius 57.1903
rwrist -54.4102
rhand -22.286 -19.516
rfingers 7.12502
rthumb 4.13255 -49.4557
lclavicle 7.85572e-014 1.18774e-014
lhumerus 2.74397 18.9526 71.4171
lradius 47.4202
lwrist 58.758
lhand -41.4594 5.62967
lfingers 7.12502
lthumb -14.3743 35.112
rfemur -1.72567 5.86828 36.9062
rtibia 32.3176
rfoot -21.1887 -11.6385
rtoes 4.17544
lfemur -19.7291 3.144 -11.9508
ltibia 63.5897
lfoot -12.229 5.73385
ltoes -13.4319
426
root 23.3205 15.8973 -5.48572 166.072 -36.9572 -172.142
lowerback -0.405241 -2.11415 6.97997
upperback 0.136752 -2.89928 0.887871
thorax 0.0711418 -1.45998 -2.99605
lowerneck 8.82268 4.66814 1.45644
upperneck -8.59442 6.95578 6.30066
head -4.19842 2.95549 1.26351
rclavicle -6.32011e-014 -9.19379e-015
rhumerus -6.89003 6.85171 -65.4
rradius 56.8128
rwrist -53.9857
rhand -22.3187 -19.454
rfingers 7.12502
rthumb 4.10098 -49.3943
lclavicle -6.32011e-014 -9.19379e-015
lhumerus 2.59458 19.0061 71.3087
lradius 47.1862
lwrist 58.6994
lhand -41.4923 5.63882
lfingers 7.12502
lthumb -14.4061 35.1189
rfemur -0.804422 5.78134 37.0341
rtibia 32.066
rfoot -21.4692 -11.2881
rtoes 3.56885
lfemur -20.4842 3.02793 -12.1051
ltibia 61.5768
lfoot -12.9492 6.58853
ltoes -13.4763
427
root 23.1824 15.8926 -5.63693 166.092 -36.4622 -172.025
lowerback -0.442115 -2.0698 7.27032
upperback 0.152035 -2.8479 0.888894
thorax 0.0992738 -1.43359 -3.15864
lowerneck 8.79531 4.77165 1.42824
upperneck -8.18773 7.06 6.15223
head -4.50889 3.03965 1.36329
rclavicle 4.52732e-014 8.64713e-015
rhumerus -6.85231 6.81065 -65.3913
rradius 56.44
rwrist -53.5829
rhand -22.3768 -19.4036
rfingers 7.12502
rthumb 4.04489 -49.345
lclavicle 4.52732e-014 8.64713e-015
lhumerus 2.45794 19.0601 71.2027
lradius 46.9566
lwrist 58.6482
lhand -41.5325 5.6478
lfingers 7.12502
lthumb -14.4448 35.1251
rfemur 0.183818 5.68657 37.1865
rtibia 31.6498
rfoot -21.6584 -10.9462
rtoes 2.96271
lfemur -21.1356 2.93433 -12.1973
ltibia 59.3299
lfoot -13.5641 7.39152
ltoes -13.6787
